<?xml version="1.0" standalone="no"?>
<!DOCTYPE svg PUBLIC "-//W3C//DTD SVG 20010904//EN"
 "http://www.w3.org/TR/2001/REC-SVG-20010904/DTD/svg10.dtd">
<svg version="1.0" xmlns="http://www.w3.org/2000/svg"
 width="1200.000000pt" height="1200.000000pt" viewBox="0 0 1200.000000 1200.000000"
 preserveAspectRatio="xMidYMid meet">

<g transform="translate(0.000000,1200.000000) scale(0.100000,-0.100000)"
fill="#000000" stroke="none">
<path d="M5730 11990 c-773 -61 -1420 -346 -1724 -760 -184 -249 -219 -545
-97 -813 187 -414 744 -749 1456 -877 386 -69 878 -69 1266 1 796 143 1379
537 1503 1017 104 400 -140 812 -649 1095 -290 161 -664 273 -1080 322 -160
19 -520 27 -675 15z"/>
<path d="M2451 10339 c-511 -62 -1080 -484 -1510 -1119 -279 -412 -470 -874
-552 -1338 -30 -167 -37 -487 -15 -638 39 -263 127 -463 270 -612 153 -159
331 -232 569 -232 384 0 808 214 1205 609 645 640 1049 1594 1001 2362 -32
505 -268 855 -639 948 -94 23 -233 32 -329 20z"/>
<path d="M9316 10339 c-396 -47 -666 -366 -732 -863 -19 -143 -14 -412 10
-569 92 -589 374 -1194 787 -1687 183 -219 450 -455 654 -580 178 -109 388
-195 553 -226 123 -23 339 -15 437 16 548 174 752 873 511 1750 -123 447 -352
893 -657 1276 -119 148 -335 369 -459 468 -384 306 -776 453 -1104 415z"/>
<path d="M1111 5598 c-98 -10 -227 -51 -309 -99 -86 -51 -220 -189 -276 -284
-116 -200 -166 -416 -166 -722 0 -1253 1111 -2739 2117 -2832 495 -45 842 266
930 834 18 121 20 380 3 520 -118 991 -825 2052 -1625 2440 -247 120 -461 166
-674 143z"/>
<path d="M10560 5581 c-232 -50 -460 -162 -710 -349 -144 -108 -424 -387 -544
-542 -377 -488 -622 -1037 -713 -1595 -25 -155 -25 -511 0 -645 80 -425 312
-703 650 -776 95 -21 279 -20 382 1 391 80 803 349 1154 752 640 735 973 1729
819 2443 -66 308 -226 538 -453 651 -121 60 -213 79 -369 78 -86 0 -160 -7
-216 -18z"/>
<path d="M5855 2513 c-472 -27 -844 -109 -1185 -262 -363 -163 -644 -409 -761
-668 -99 -217 -95 -454 11 -671 228 -463 876 -800 1720 -893 148 -16 562 -16
710 0 518 57 947 197 1280 418 141 94 313 261 389 378 86 133 141 308 141 443
-4 530 -572 1001 -1425 1181 -281 60 -630 89 -880 74z"/>
</g>
</svg>
